<svg width="239" height="66" viewBox="0 0 239 66" fill="none" xmlns="http://www.w3.org/2000/svg">
<g id="Calque_1" clip-path="url(#clip0_137_2289)" fill="#ffffff">
<path id="Vector" d="M85.7052 30.5792H85.7615V26.6803H87.9154C88.4538 26.6803 88.936 26.5917 89.354 26.4225C89.7719 26.2533 90.1255 26.0036 90.4148 25.6733C90.6961 25.3511 90.9131 24.9644 91.0497 24.5133C91.1864 24.0703 91.2587 23.5708 91.2587 23.023C91.2587 22.4752 91.1944 21.9758 91.0578 21.5569C90.9211 21.1299 90.7202 20.7674 90.455 20.4774C90.1818 20.1874 89.8362 19.9699 89.4183 19.8249C89.0084 19.6799 88.5181 19.6074 87.9636 19.6074H84.7729V30.5712H85.6972L85.7052 30.5792ZM90.2782 23.023C90.2782 23.458 90.23 23.8528 90.1496 24.183C90.0612 24.5133 89.9326 24.7953 89.7558 25.0289C89.579 25.2625 89.354 25.4317 89.0727 25.5606C88.7914 25.6894 88.4378 25.7458 88.0359 25.7458H85.7695V20.5338H88.1886C88.5663 20.5338 88.8959 20.5902 89.1611 20.703C89.4263 20.8158 89.6433 20.9769 89.804 21.1783C89.9648 21.3877 90.0853 21.6455 90.1657 21.9436C90.246 22.2497 90.2862 22.6122 90.2862 23.015L90.2782 23.023Z" fill="white"/>
<path id="Vector_2" d="M102.623 30.3214C102.398 29.3387 102.124 28.3075 101.819 27.2522C101.522 26.2131 101.2 25.19 100.863 24.2072C100.541 23.2647 100.212 22.3786 99.8902 21.5649C99.5768 20.7755 99.2875 20.1472 99.0464 19.6719L99.0303 19.6316L99.0142 19.5994H97.9775L97.9614 19.6316L97.9453 19.6719C97.6962 20.1391 97.4229 20.7513 97.1014 21.5488C96.796 22.3061 96.4746 23.1922 96.1451 24.1669C95.8236 25.1255 95.5021 26.1406 95.1967 27.2039C94.8833 28.2673 94.61 29.3145 94.377 30.3214V30.5228V30.5792H95.3735V30.5389L95.3976 30.4826C95.4619 30.2167 95.5262 29.9509 95.5986 29.6931C95.6628 29.4353 95.7352 29.1695 95.7995 28.9037C95.8638 28.6459 95.9361 28.38 96.0084 28.1303C96.0727 27.9047 96.137 27.6792 96.1933 27.4536H100.814C100.879 27.6792 100.943 27.9047 101.007 28.1303C101.08 28.3881 101.144 28.6459 101.216 28.9037C101.281 29.1695 101.345 29.4273 101.417 29.6931C101.482 29.9589 101.554 30.2167 101.618 30.4826L101.634 30.5389V30.5792H102.655V30.5228V30.3214H102.623ZM100.533 26.5272H96.4424C96.5871 26.0278 96.7398 25.5364 96.8845 25.0692C97.0372 24.5858 97.214 24.0622 97.4068 23.5064C97.5756 23.015 97.7685 22.5155 97.9855 21.9677C98.1382 21.5811 98.315 21.1702 98.4999 20.7352C98.6767 21.1622 98.8454 21.5891 99.0062 22.008C99.2151 22.5558 99.4 23.0714 99.5768 23.5627C99.7456 24.0541 99.9224 24.5778 100.099 25.1255C100.244 25.5606 100.389 26.0358 100.533 26.5272Z" fill="white"/>
<path id="Vector_3" d="M113.408 19.6074H113.352V28.4525L107.742 19.6638L107.718 19.6316L107.702 19.6074H106.946V30.5712H107.927V21.7261L113.537 30.5148L113.561 30.547L113.577 30.5712H114.332V19.6074H113.408Z" fill="white"/>
<path id="Vector_4" d="M118.479 19.6074H118.423V20.5338H121.887V30.5712H122.851V20.5338H126.315V19.6074H118.479Z" fill="white"/>
<path id="Vector_5" d="M137.093 30.5228V30.5792H137.149H138.017H138.073V30.5228V19.6638V19.6074H138.017H137.149H137.093V19.6638V24.2958H131.676V19.6638V19.6074H131.62H130.752H130.695V19.6638V30.5228V30.5792H130.752H131.62H131.676V30.5228V25.2222H137.093V30.5228Z" fill="white"/>
<path id="Vector_6" d="M143.506 19.6074H143.45V27.9934C143.45 28.4284 143.506 28.807 143.61 29.1292C143.723 29.4595 143.892 29.7334 144.117 29.9428C144.342 30.1523 144.615 30.3134 144.945 30.4181C145.274 30.5228 145.652 30.5712 146.086 30.5712H149.373V29.6448H146.021C145.74 29.6448 145.499 29.6125 145.298 29.5481C145.097 29.4837 144.945 29.387 144.816 29.2581C144.687 29.1292 144.591 28.9681 144.527 28.7748C144.462 28.5814 144.43 28.3317 144.43 28.0498V25.2222H148.931V24.2958H144.43V20.5419H149.373V19.6155H143.506V19.6074Z" fill="white"/>
<path id="Vector_7" d="M145.998 18.7536H146.022L146.038 18.7375L147.999 16.6994L148.023 16.6752L148.039 16.6591V16.2644H146.962L146.946 16.2886L145.531 18.3186L145.515 18.3347V18.3508L145.507 18.3669V18.7455H146.006L145.998 18.7536Z" fill="white"/>
<path id="Vector_8" d="M162.2 25.3189V24.8678C162.2 24.1105 162.12 23.4097 161.959 22.7814C161.798 22.145 161.541 21.5891 161.203 21.1138C160.858 20.6385 160.416 20.2599 159.877 19.9941C159.339 19.7283 158.688 19.5994 157.957 19.5994C157.225 19.5994 156.566 19.7363 156.028 19.9941C155.481 20.2599 155.031 20.6385 154.686 21.1138C154.348 21.5891 154.091 22.153 153.93 22.7814C153.769 23.4097 153.689 24.1105 153.689 24.8678V25.3189C153.689 26.0761 153.769 26.777 153.93 27.4053C154.091 28.0417 154.34 28.6056 154.686 29.0728C155.031 29.5481 155.481 29.9267 156.028 30.1926C156.566 30.4584 157.217 30.5873 157.957 30.5873C158.696 30.5873 159.347 30.4503 159.877 30.1926C160.416 29.9267 160.866 29.5481 161.211 29.0728C161.549 28.5975 161.806 28.0417 161.967 27.4053C162.128 26.777 162.208 26.0761 162.208 25.3189H162.2ZM161.22 25.3189C161.22 25.9553 161.163 26.5433 161.043 27.075C160.93 27.5906 160.737 28.0578 160.48 28.4445C160.231 28.8312 159.893 29.1292 159.475 29.3467C159.058 29.5642 158.543 29.6689 157.949 29.6689C157.354 29.6689 156.839 29.5642 156.422 29.3467C156.004 29.1373 155.658 28.8312 155.409 28.4445C155.152 28.0498 154.967 27.5906 154.846 27.075C154.734 26.5433 154.669 25.9553 154.669 25.3189V24.8678C154.669 24.2314 154.726 23.6433 154.846 23.1116C154.959 22.5961 155.152 22.1369 155.409 21.7422C155.658 21.3555 156.004 21.0574 156.422 20.8399C156.839 20.6224 157.354 20.5177 157.949 20.5177C158.543 20.5177 159.058 20.6224 159.475 20.8399C159.893 21.0574 160.231 21.3555 160.48 21.7422C160.737 22.1369 160.922 22.5961 161.043 23.1116C161.155 23.6433 161.22 24.2314 161.22 24.8678V25.3189Z" fill="white"/>
<path id="Vector_9" d="M173.741 30.5551L173.757 30.5792H173.789H174.456H174.512V30.5228V19.6638V19.6074H174.456H173.58H173.524V19.6638V28.4525L167.922 19.6719L167.898 19.6396L167.882 19.6074H167.85H167.183H167.126V19.6638V30.5228V30.5792H167.183H168.051H168.107V30.5228V21.7341L173.717 30.5228L173.741 30.5551Z" fill="white"/>
<path id="Vector_10" d="M179.214 24.5778H179.158V25.3914H183.433V24.5778H179.214Z" fill="white"/>
<path id="Vector_11" d="M195.223 30.3214C194.998 29.3387 194.725 28.3075 194.42 27.2522C194.122 26.2131 193.801 25.19 193.463 24.2072C193.142 23.2647 192.812 22.3786 192.491 21.5649C192.177 20.7755 191.888 20.1472 191.647 19.6719L191.631 19.6316L191.615 19.5994H190.578L190.562 19.6316L190.546 19.6719C190.297 20.131 190.024 20.7513 189.702 21.5488C189.397 22.3061 189.075 23.1922 188.746 24.1669C188.424 25.1255 188.103 26.1486 187.797 27.2039C187.484 28.2673 187.211 29.3145 186.978 30.3214V30.5228V30.5792H187.974V30.5389L187.998 30.4826C188.063 30.2167 188.127 29.9509 188.199 29.6931C188.263 29.4353 188.336 29.1695 188.4 28.9037C188.464 28.6459 188.537 28.38 188.609 28.1303C188.673 27.9047 188.738 27.6792 188.794 27.4536H193.415C193.479 27.6792 193.544 27.9047 193.608 28.1303C193.68 28.3881 193.745 28.6459 193.817 28.9037C193.881 29.1695 193.946 29.4273 194.018 29.6931C194.082 29.9589 194.154 30.2167 194.219 30.4826L194.235 30.5389V30.5792H195.256V30.5228V30.3214H195.223ZM192.169 23.5627C192.338 24.0461 192.515 24.5778 192.692 25.1255C192.836 25.5606 192.981 26.0358 193.126 26.5272H189.035C189.18 26.0278 189.332 25.5364 189.477 25.0692C189.63 24.5858 189.807 24.0622 189.999 23.5064C190.168 23.015 190.361 22.5155 190.578 21.9677C190.731 21.5811 190.908 21.1622 191.092 20.7352C191.269 21.1622 191.438 21.5891 191.599 22.008C191.808 22.5638 191.993 23.0714 192.169 23.5627Z" fill="white"/>
<path id="Vector_12" d="M205.599 26.4386C205.486 26.1083 205.317 25.8264 205.092 25.5847C204.875 25.3511 204.61 25.1497 204.313 24.9967C204.015 24.8355 203.67 24.7067 203.284 24.6019L201.733 24.1508C201.524 24.0944 201.323 24.0219 201.154 23.9333C200.986 23.8447 200.833 23.7239 200.712 23.5869C200.592 23.45 200.495 23.2889 200.423 23.1036C200.351 22.9183 200.318 22.7008 200.318 22.4672C200.318 22.1288 200.375 21.8388 200.487 21.5891C200.6 21.3394 200.761 21.1461 200.978 20.9849C201.195 20.8238 201.452 20.711 201.749 20.6385C202.046 20.558 202.384 20.5258 202.754 20.5258H202.971C203.131 20.5258 203.324 20.5338 203.533 20.558C203.758 20.5822 203.967 20.6144 204.16 20.6466C204.369 20.6869 204.57 20.7272 204.755 20.7674C204.94 20.8158 205.1 20.856 205.237 20.8883H205.438H205.494V20.0263L205.462 20.0102L205.414 19.9941C205.253 19.9296 205.076 19.8813 204.867 19.833C204.674 19.7846 204.465 19.7444 204.232 19.7041C204.032 19.6719 203.806 19.6396 203.573 19.6155C203.364 19.5994 203.155 19.5913 202.971 19.5913H202.81C202.32 19.5913 201.854 19.6477 201.444 19.7605C201.026 19.8733 200.656 20.0585 200.343 20.2922C200.029 20.5338 199.78 20.8399 199.603 21.2024C199.426 21.5649 199.338 21.9838 199.338 22.4511C199.338 22.8377 199.394 23.1841 199.507 23.4741C199.619 23.7722 199.78 24.03 199.989 24.2394C200.198 24.4489 200.455 24.6261 200.744 24.7711C201.026 24.908 201.363 25.0369 201.757 25.1497L203.324 25.5847C203.565 25.6572 203.782 25.7539 203.959 25.8667C204.136 25.9794 204.289 26.1164 204.409 26.2694C204.53 26.4225 204.626 26.6078 204.682 26.8172C204.747 27.0347 204.779 27.2845 204.779 27.5422C204.779 27.8645 204.723 28.1625 204.61 28.4284C204.498 28.6942 204.345 28.9117 204.144 29.0889C203.943 29.2662 203.702 29.4031 203.413 29.5078C203.123 29.6045 202.802 29.6528 202.456 29.6528H201.958C201.789 29.6528 201.596 29.6367 201.371 29.6125C201.154 29.5884 200.913 29.5481 200.664 29.4917C200.439 29.4434 200.214 29.395 199.973 29.3306C199.764 29.2742 199.587 29.2259 199.45 29.1695H199.442H199.434H199.233H199.177V30.1039L199.217 30.1201L199.266 30.1362C199.459 30.2006 199.676 30.2651 199.917 30.3214C200.134 30.3698 200.375 30.4181 200.632 30.4664C200.873 30.5067 201.114 30.5389 201.347 30.5631C201.58 30.5792 201.781 30.5873 201.966 30.5873H202.408C202.898 30.5873 203.348 30.5228 203.75 30.3939C204.16 30.2651 204.522 30.0637 204.819 29.8059C205.125 29.5481 205.358 29.2259 205.526 28.8392C205.687 28.4606 205.776 28.0336 205.776 27.5584C205.776 27.1314 205.719 26.7528 205.607 26.4306L205.599 26.4386Z" fill="white"/>
<path id="Vector_13" d="M216.416 27.5664C216.416 27.1395 216.36 26.7608 216.248 26.4386C216.135 26.1083 215.966 25.8264 215.741 25.5847C215.524 25.3511 215.259 25.1497 214.962 24.9967C214.664 24.8355 214.319 24.7067 213.933 24.6019L212.382 24.1508C212.173 24.0944 211.972 24.0219 211.803 23.9333C211.634 23.8447 211.482 23.7239 211.361 23.5869C211.241 23.45 211.144 23.2889 211.072 23.1036C211 22.9183 210.967 22.7008 210.967 22.4672C210.967 22.1288 211.024 21.8388 211.136 21.5891C211.249 21.3394 211.409 21.1461 211.626 20.9849C211.843 20.8238 212.101 20.711 212.398 20.6385C212.695 20.558 213.033 20.5258 213.403 20.5258H213.62C213.78 20.5258 213.973 20.5338 214.182 20.558C214.407 20.5822 214.616 20.6144 214.809 20.6466C215.018 20.6869 215.219 20.7272 215.404 20.7674C215.589 20.8158 215.749 20.856 215.886 20.8883H216.087H216.143V20.0263L216.111 20.0102L216.063 19.9941C215.902 19.9296 215.725 19.8813 215.516 19.833C215.323 19.7846 215.114 19.7444 214.881 19.7041C214.68 19.6719 214.455 19.6396 214.222 19.6155C214.013 19.5994 213.804 19.5913 213.62 19.5913H213.459C212.969 19.5913 212.502 19.6477 212.093 19.7605C211.675 19.8733 211.305 20.0585 210.992 20.2922C210.678 20.5338 210.429 20.8399 210.252 21.2024C210.075 21.5649 209.987 21.9838 209.987 22.4511C209.987 22.8377 210.043 23.1841 210.156 23.4741C210.268 23.7722 210.429 24.03 210.638 24.2394C210.847 24.4489 211.104 24.6261 211.393 24.7711C211.675 24.908 212.012 25.0369 212.406 25.1497L213.973 25.5847C214.214 25.6572 214.431 25.7539 214.608 25.8667C214.785 25.9794 214.938 26.1164 215.058 26.2694C215.179 26.4225 215.275 26.6078 215.331 26.8172C215.396 27.0347 215.428 27.2845 215.428 27.5422C215.428 27.8645 215.372 28.1625 215.259 28.4284C215.147 28.6942 214.994 28.9117 214.793 29.0889C214.592 29.2662 214.351 29.4031 214.062 29.5078C213.772 29.6045 213.451 29.6528 213.105 29.6528H212.607C212.438 29.6528 212.245 29.6367 212.02 29.6125C211.803 29.5884 211.562 29.5481 211.313 29.4917C211.088 29.4434 210.863 29.395 210.622 29.3306C210.413 29.2742 210.236 29.2259 210.099 29.1695H210.091H210.083H209.882H209.826V30.1039L209.866 30.1201L209.915 30.1362C210.107 30.2006 210.324 30.2651 210.566 30.3214C210.783 30.3698 211.032 30.4181 211.281 30.4664C211.522 30.5067 211.763 30.5389 211.996 30.5631C212.229 30.5792 212.43 30.5873 212.615 30.5873H213.057C213.547 30.5873 213.997 30.5228 214.399 30.3939C214.809 30.2651 215.171 30.0637 215.468 29.8059C215.773 29.5481 216.007 29.2259 216.175 28.8392C216.336 28.4606 216.424 28.0336 216.424 27.5584L216.416 27.5664Z" fill="white"/>
<path id="Vector_14" d="M228.456 30.3214C228.231 29.3387 227.957 28.3075 227.652 27.2522C227.355 26.2131 227.033 25.19 226.696 24.2072C226.374 23.2647 226.045 22.3786 225.723 21.5649C225.41 20.7755 225.12 20.1472 224.879 19.6719L224.863 19.6316L224.847 19.5994H223.81L223.794 19.6316L223.778 19.6719C223.529 20.1391 223.256 20.7513 222.934 21.5488C222.629 22.3061 222.308 23.1922 221.978 24.1669C221.657 25.1255 221.335 26.1406 221.03 27.2039C220.716 28.2673 220.443 29.3145 220.21 30.3214V30.5228V30.5792H221.207V30.5389L221.231 30.4826C221.295 30.2167 221.359 29.9509 221.432 29.6931C221.496 29.4353 221.568 29.1695 221.632 28.9037C221.697 28.6459 221.769 28.38 221.841 28.1303C221.906 27.9047 221.97 27.6792 222.026 27.4536H226.647C226.712 27.6792 226.776 27.9047 226.84 28.1303C226.913 28.3881 226.977 28.6459 227.049 28.9037C227.114 29.1695 227.178 29.4273 227.25 29.6931C227.315 29.9589 227.387 30.2167 227.451 30.4826L227.467 30.5389V30.5792H228.488V30.5228V30.3214H228.456ZM225.924 25.1255C226.069 25.5606 226.213 26.0358 226.358 26.5272H222.267C222.412 26.0278 222.565 25.5364 222.709 25.0692C222.862 24.5858 223.039 24.0622 223.232 23.5064C223.401 23.015 223.593 22.5155 223.81 21.9677C223.963 21.5811 224.14 21.1702 224.325 20.7352C224.502 21.1622 224.67 21.5891 224.831 22.008C225.04 22.5558 225.225 23.0714 225.402 23.5627C225.571 24.0541 225.747 24.5778 225.924 25.1255Z" fill="white"/>
<path id="Vector_15" d="M232.49 30.1442C232.683 30.2087 232.9 30.2731 233.141 30.3295C233.358 30.3778 233.607 30.4262 233.856 30.4745C234.097 30.5148 234.339 30.547 234.572 30.5712C234.805 30.5873 235.006 30.5953 235.19 30.5953H235.632C236.123 30.5953 236.573 30.5309 236.975 30.402C237.384 30.2731 237.746 30.0717 238.044 29.8139C238.349 29.5562 238.582 29.2339 238.751 28.8473C238.911 28.4686 239 28.0417 239 27.5664C239 27.1395 238.944 26.7608 238.831 26.4386C238.719 26.1083 238.55 25.8264 238.325 25.5847C238.108 25.3511 237.843 25.1497 237.545 24.9967C237.248 24.8355 236.902 24.7067 236.517 24.6019L234.965 24.1508C234.756 24.0944 234.556 24.0219 234.387 23.9333C234.218 23.8447 234.065 23.7239 233.945 23.5869C233.824 23.45 233.728 23.2889 233.655 23.1036C233.583 22.9183 233.551 22.7008 233.551 22.4672C233.551 22.1288 233.607 21.8388 233.72 21.5891C233.832 21.3394 233.993 21.1461 234.21 20.9849C234.427 20.8238 234.684 20.711 234.981 20.6385C235.279 20.558 235.616 20.5258 235.986 20.5258H236.203C236.364 20.5258 236.557 20.5338 236.766 20.558C236.991 20.5822 237.2 20.6144 237.393 20.6466C237.601 20.6869 237.802 20.7272 237.987 20.7674C238.172 20.8158 238.333 20.856 238.469 20.8883H238.67H238.727V20.0263L238.694 20.0102L238.646 19.9941C238.486 19.9296 238.309 19.8813 238.1 19.833C237.907 19.7846 237.698 19.7444 237.465 19.7041C237.264 19.6719 237.039 19.6396 236.806 19.6155C236.597 19.5994 236.388 19.5913 236.203 19.5913H236.042C235.552 19.5913 235.086 19.6477 234.676 19.7605C234.258 19.8733 233.888 20.0585 233.575 20.2922C233.262 20.5338 233.012 20.8399 232.836 21.2024C232.659 21.5649 232.57 21.9838 232.57 22.4511C232.57 22.8377 232.627 23.1841 232.739 23.4741C232.852 23.7722 233.012 24.03 233.221 24.2394C233.43 24.4489 233.688 24.6261 233.977 24.7711C234.258 24.908 234.596 25.0369 234.99 25.1497L236.557 25.5847C236.798 25.6572 237.015 25.7539 237.192 25.8667C237.368 25.9794 237.521 26.1164 237.642 26.2694C237.762 26.4225 237.859 26.6078 237.915 26.8172C237.979 27.0347 238.011 27.2845 238.011 27.5422C238.011 27.8645 237.955 28.1625 237.843 28.4284C237.73 28.6942 237.577 28.9117 237.376 29.0889C237.176 29.2662 236.934 29.4031 236.645 29.5078C236.356 29.6045 236.034 29.6528 235.689 29.6528H235.19C235.022 29.6528 234.829 29.6367 234.604 29.6125C234.387 29.5884 234.146 29.5481 233.896 29.4917C233.671 29.4434 233.446 29.395 233.205 29.3306C232.996 29.2742 232.82 29.2259 232.683 29.1695H232.675H232.667H232.466H232.41V30.1039L232.45 30.1201L232.498 30.1362L232.49 30.1442Z" fill="white"/>
<path id="Vector_16" d="M148.481 52.5471C148.312 52.3618 148.087 52.2248 147.822 52.1282C147.557 52.0395 147.259 51.9912 146.898 51.9912H144.864V58.911H145.572V56.4863H146.865C147.211 56.4863 147.516 56.4299 147.782 56.3171C148.047 56.2043 148.28 56.0432 148.457 55.8418C148.634 55.6404 148.77 55.3907 148.867 55.1007C148.955 54.8187 149.003 54.5046 149.003 54.1582C149.003 53.8118 148.963 53.4976 148.875 53.2318C148.794 52.9579 148.658 52.7243 148.489 52.539L148.481 52.5471ZM148.288 54.1662C148.288 54.4321 148.264 54.6737 148.208 54.8751C148.159 55.0765 148.079 55.2457 147.966 55.3826C147.862 55.5196 147.725 55.6243 147.557 55.6968C147.388 55.7693 147.179 55.8096 146.93 55.8096H145.572V52.6598H147.034C147.259 52.6598 147.46 52.6921 147.621 52.7646C147.782 52.829 147.902 52.9257 147.999 53.0465C148.095 53.1673 148.167 53.3284 148.216 53.5057C148.264 53.699 148.288 53.9165 148.288 54.1662Z" fill="white"/>
<path id="Vector_17" d="M157.362 58.7016C157.217 58.0652 157.048 57.4288 156.863 56.7843C156.662 56.0996 156.47 55.4632 156.269 54.8912C156.06 54.2871 155.859 53.7393 155.666 53.2479C155.465 52.7484 155.296 52.3618 155.135 52.0637L155.119 52.0234L155.103 51.9912H154.396L154.38 52.0234L154.364 52.0637C154.211 52.3537 154.042 52.7323 153.833 53.2318C153.649 53.691 153.448 54.2468 153.239 54.8671C153.038 55.4632 152.837 56.0996 152.652 56.7602C152.467 57.3966 152.29 58.0491 152.138 58.7096V58.8627V58.9191H152.845V58.8788L152.869 58.8224L152.957 58.4841L152.998 58.323C153.03 58.186 153.062 58.0571 153.102 57.9202L153.126 57.8396L153.142 57.7832C153.182 57.6382 153.215 57.5013 153.255 57.3643C153.295 57.2354 153.327 57.1066 153.359 56.9777H156.164C156.204 57.1066 156.236 57.2354 156.277 57.3643C156.325 57.5254 156.365 57.6866 156.405 57.8477L156.534 58.3391L156.574 58.5002L156.614 58.6613L156.67 58.8788V58.9191H157.394V58.8627V58.7016H157.362ZM153.528 56.301C153.616 56.011 153.697 55.729 153.785 55.4551C153.874 55.1732 153.978 54.859 154.107 54.4885C154.219 54.1662 154.34 53.844 154.46 53.5379C154.573 53.2721 154.653 53.0626 154.734 52.8773C154.838 53.1271 154.926 53.3526 155.007 53.5621C155.143 53.9246 155.256 54.2307 155.36 54.5287C155.465 54.8349 155.569 55.141 155.69 55.5035C155.778 55.7693 155.859 56.0352 155.939 56.309H153.52L153.528 56.301Z" fill="white"/>
<path id="Vector_18" d="M165.422 58.033C165.31 57.7591 165.181 57.4771 165.045 57.2032C164.9 56.9132 164.747 56.6393 164.579 56.3735C164.458 56.1882 164.337 56.0271 164.217 55.8901C164.354 55.8338 164.474 55.7613 164.595 55.6807C164.771 55.5599 164.908 55.4149 165.029 55.2376C165.141 55.0685 165.238 54.8832 165.302 54.6737C165.366 54.4724 165.398 54.2548 165.398 54.0293C165.398 53.691 165.366 53.3929 165.294 53.1512C165.221 52.9015 165.101 52.684 164.948 52.5068C164.788 52.3295 164.579 52.2007 164.337 52.112C164.104 52.0315 163.815 51.9912 163.477 51.9912H161.275V58.911H161.983V56.1399H163.502C163.63 56.2607 163.767 56.4299 163.911 56.6474C164.072 56.8971 164.233 57.1549 164.37 57.4288C164.514 57.7107 164.643 57.9766 164.747 58.2343C164.852 58.4841 164.916 58.6774 164.956 58.8144L164.972 58.8707V58.911H165.688V58.6855C165.631 58.5163 165.551 58.2988 165.438 58.033H165.422ZM164.329 55.0685C164.217 55.1974 164.072 55.294 163.911 55.3665C163.743 55.439 163.558 55.4713 163.357 55.4713H161.967V52.6679H163.534C163.751 52.6679 163.944 52.7001 164.088 52.7565C164.233 52.8129 164.345 52.8854 164.426 52.9982C164.514 53.1109 164.579 53.2479 164.611 53.409C164.651 53.5862 164.675 53.7957 164.675 54.0373C164.675 54.2468 164.643 54.4401 164.587 54.6174C164.53 54.7865 164.442 54.9396 164.321 55.0685H164.329Z" fill="white"/>
<path id="Vector_19" d="M169.867 51.9912H169.811V52.0476V58.8546V58.911H169.867H170.462H170.518V58.8546V52.0476V51.9912H170.462H169.867Z" fill="white"/>
<path id="Vector_20" d="M178.49 55.729C178.354 55.584 178.185 55.4551 177.992 55.3504C177.807 55.2538 177.59 55.1651 177.341 55.1007L176.377 54.8187C176.248 54.7865 176.128 54.7462 176.023 54.6899C175.919 54.6335 175.838 54.569 175.758 54.4885C175.686 54.4079 175.629 54.3112 175.589 54.1985C175.549 54.0857 175.525 53.9648 175.525 53.8198C175.525 53.6265 175.557 53.4493 175.629 53.2962C175.694 53.1512 175.79 53.0304 175.919 52.9418C176.047 52.8451 176.2 52.7807 176.377 52.7323C176.554 52.684 176.762 52.6598 176.996 52.6598H177.132C177.237 52.6598 177.349 52.6598 177.478 52.684C177.622 52.7001 177.751 52.7162 177.864 52.7404C177.984 52.7646 178.105 52.7887 178.225 52.8209L178.306 52.8451C178.386 52.8612 178.458 52.8854 178.523 52.9015H178.675H178.732V52.2812L178.699 52.2651L178.651 52.249C178.547 52.2087 178.434 52.1765 178.306 52.1443C178.161 52.112 178.032 52.0798 177.904 52.0637C177.783 52.0395 177.655 52.0234 177.486 52.0073C177.341 51.9912 177.221 51.9912 177.108 51.9912H177.012C176.698 51.9912 176.409 52.0315 176.152 52.104C175.886 52.1765 175.645 52.2893 175.452 52.4423C175.252 52.5954 175.091 52.7887 174.978 53.0223C174.866 53.2559 174.81 53.5218 174.81 53.8198C174.81 54.0696 174.842 54.2951 174.914 54.4724C174.986 54.6576 175.091 54.8268 175.227 54.9638C175.364 55.1007 175.525 55.2135 175.71 55.3021C175.886 55.3907 176.103 55.4713 176.345 55.5438L177.317 55.8176C177.462 55.8579 177.59 55.9143 177.703 55.9868C177.807 56.0513 177.896 56.1399 177.968 56.2285C178.04 56.3171 178.097 56.4218 178.129 56.5507C178.169 56.6796 178.185 56.8327 178.185 56.9938C178.185 57.1871 178.153 57.3643 178.081 57.5254C178.016 57.6866 177.92 57.8155 177.799 57.9202C177.679 58.0249 177.534 58.1135 177.365 58.1699C177.188 58.2263 176.996 58.2585 176.787 58.2585H176.473C176.369 58.2585 176.24 58.2505 176.111 58.2343C175.975 58.2182 175.83 58.1941 175.669 58.1618C175.493 58.1216 175.364 58.0974 175.244 58.0652C175.123 58.033 175.01 58.0007 174.922 57.9685H174.914H174.906H174.745H174.689V58.6371L174.729 58.6532L174.777 58.6694C174.898 58.7096 175.035 58.7499 175.187 58.7821C175.34 58.8144 175.485 58.8466 175.637 58.8707C175.774 58.8949 175.927 58.9191 176.087 58.9352C176.24 58.9513 176.369 58.9513 176.481 58.9513H176.754C177.068 58.9513 177.349 58.911 177.606 58.8305C177.864 58.7499 178.097 58.621 178.289 58.4599C178.482 58.2988 178.635 58.0893 178.74 57.8396C178.844 57.5979 178.892 57.3241 178.892 57.026C178.892 56.7602 178.852 56.5185 178.78 56.309C178.707 56.0996 178.603 55.9143 178.458 55.7613L178.49 55.729Z" fill="white"/>
<path id="Vector_21" d="M92.7372 35.5334C92.689 35.5334 92.6167 35.5334 92.5203 35.5334C92.4158 35.5334 92.3033 35.5415 92.1827 35.5496L91.805 35.5657C91.6764 35.5657 91.5639 35.5657 91.4835 35.5657C91.3871 35.5657 91.2745 35.5657 91.154 35.5657L90.7682 35.5496C90.6396 35.5496 90.5271 35.5415 90.4226 35.5334C90.3101 35.5334 90.2378 35.5334 90.2056 35.5334H90.0771V36.1215H90.1253L90.1896 36.1376C90.6718 36.186 90.8727 36.2665 90.9531 36.3229C91.0495 36.3954 91.1058 36.5162 91.1058 36.6935V41.5269C91.1058 41.9699 91.0656 42.3646 90.9933 42.711C90.9209 43.0333 90.8004 43.3072 90.6316 43.5247C90.4628 43.7341 90.2458 43.9033 89.9806 44.008C89.6993 44.1208 89.3618 44.1772 88.9599 44.1772C88.5581 44.1772 88.2205 44.1208 87.9312 44.008C87.666 43.9033 87.441 43.7341 87.2802 43.5247C87.1115 43.2991 86.9989 43.0252 86.9266 42.711C86.8462 42.3646 86.8061 41.9699 86.8061 41.5269V36.6935C86.8061 36.5162 86.8543 36.3954 86.9587 36.3229C87.0391 36.2665 87.24 36.186 87.7223 36.1376H87.7865L87.8348 36.1215V35.5334H87.7062C87.658 35.5334 87.5776 35.5334 87.4651 35.5334C87.3526 35.5334 87.224 35.5415 87.0954 35.5496L86.6775 35.5657C86.5408 35.5657 86.4203 35.5657 86.3158 35.5657C86.2113 35.5657 86.0908 35.5657 85.9541 35.5657L85.5282 35.5496C85.3916 35.5496 85.263 35.5415 85.1505 35.5334C85.0379 35.5334 84.9495 35.5334 84.9094 35.5334H84.7808V36.1215H84.829L84.8933 36.1376C85.3755 36.186 85.5764 36.2665 85.6568 36.3229C85.7532 36.3954 85.8095 36.5162 85.8095 36.6935V41.5269C85.8095 42.0344 85.8577 42.4935 85.9461 42.8963C86.0426 43.3233 86.2194 43.6858 86.4605 43.9838C86.7016 44.2819 87.0311 44.5155 87.4329 44.6766C87.8348 44.8377 88.3331 44.9183 88.9197 44.9183C89.4582 44.9183 89.9244 44.8377 90.3021 44.6686C90.6798 44.4994 90.9852 44.2658 91.2183 43.9597C91.4433 43.6535 91.6041 43.291 91.7005 42.8802C91.7969 42.4694 91.8452 42.0183 91.8452 41.5349V36.7015C91.8452 36.5243 91.8934 36.4035 91.9979 36.331C92.0782 36.2746 92.2711 36.194 92.7533 36.1457H92.8176L92.8658 36.1296V35.5415H92.7372V35.5334Z" fill="white"/>
<path id="Vector_22" d="M110.86 35.5334C110.812 35.5334 110.74 35.5334 110.635 35.5334C110.539 35.5334 110.418 35.5415 110.298 35.5496L109.912 35.5657C109.783 35.5657 109.671 35.5657 109.59 35.5657C109.494 35.5657 109.389 35.5657 109.261 35.5657L108.875 35.5496C108.746 35.5496 108.626 35.5415 108.521 35.5334C108.409 35.5334 108.337 35.5334 108.304 35.5334H108.176V36.1215H108.224L108.288 36.1376C108.771 36.186 108.972 36.2665 109.052 36.3229C109.148 36.3954 109.205 36.5162 109.205 36.6935V42.711L104.8 35.6059L104.776 35.5737L104.76 35.5496H104.688C104.688 35.5496 104.608 35.5496 104.527 35.5496L103.981 35.5737C103.884 35.5737 103.804 35.5737 103.748 35.5737C103.683 35.5737 103.595 35.5737 103.506 35.5737L103.217 35.5576C103.121 35.5576 103.032 35.5496 102.96 35.5415C102.872 35.5415 102.823 35.5415 102.791 35.5415H102.663V36.1296H102.711L102.775 36.1457C103.257 36.194 103.458 36.2746 103.539 36.331C103.635 36.4035 103.691 36.5243 103.691 36.7015V43.6697C103.691 43.8469 103.643 43.9677 103.539 44.0483C103.458 44.1047 103.257 44.1852 102.783 44.2255H102.719L102.671 44.2336V44.8216H102.799C102.799 44.8216 102.896 44.8216 102.984 44.8216H103.016H103.121H103.225C103.273 44.8216 103.322 44.8136 103.37 44.8136L103.756 44.7975C103.876 44.7975 103.989 44.7975 104.085 44.7975C104.174 44.7975 104.278 44.7975 104.407 44.7975L104.8 44.8136C104.897 44.8136 104.985 44.8136 105.066 44.8216H105.146C105.25 44.8216 105.323 44.8297 105.371 44.8297H105.5V44.2416H105.451L105.387 44.2336C104.905 44.1933 104.712 44.1127 104.632 44.0563C104.527 43.9758 104.479 43.8549 104.479 43.6777V37.1446L109.253 44.733L109.277 44.7652L109.293 44.7894H110.008V36.7096C110.008 36.5323 110.057 36.4115 110.161 36.339C110.274 36.2585 110.531 36.194 110.916 36.1537H110.981L111.029 36.1376V35.5496H110.9L110.86 35.5334Z" fill="white"/>
<path id="Vector_23" d="M123.703 35.5334C123.655 35.5334 123.575 35.5334 123.462 35.5334C123.35 35.5334 123.221 35.5415 123.084 35.5496L122.675 35.5657C122.538 35.5657 122.417 35.5657 122.313 35.5657C122.208 35.5657 122.088 35.5657 121.951 35.5657L121.533 35.5496C121.389 35.5496 121.268 35.5415 121.148 35.5334C121.035 35.5334 120.947 35.5334 120.906 35.5334H120.778V36.1215H120.826L120.89 36.1376C121.373 36.186 121.573 36.2665 121.654 36.3229C121.75 36.3954 121.807 36.5162 121.807 36.6935V43.6616C121.807 43.8388 121.758 43.9597 121.654 44.0402C121.573 44.0966 121.373 44.1772 120.898 44.2174H120.834L120.786 44.2255V44.8136H120.914C120.963 44.8136 121.035 44.8136 121.148 44.8136H121.236C121.324 44.8136 121.413 44.8055 121.517 44.7975L121.935 44.7813C122.072 44.7813 122.192 44.7813 122.305 44.7813C122.417 44.7813 122.53 44.7813 122.666 44.7813L123.084 44.7975C123.141 44.7975 123.197 44.7975 123.245 44.7975H123.35L123.462 44.8055C123.575 44.8055 123.663 44.8055 123.703 44.8055H123.832V44.2174H123.784L123.719 44.2094C123.237 44.1691 123.044 44.0886 122.964 44.0322C122.859 43.9597 122.811 43.8308 122.811 43.6535V36.6854C122.811 36.5082 122.859 36.3873 122.964 36.3148C123.044 36.2585 123.245 36.1779 123.727 36.1296H123.792L123.84 36.1135V35.5254H123.711L123.703 35.5334Z" fill="white"/>
<path id="Vector_24" d="M142.092 35.5334C142.043 35.5334 141.971 35.5334 141.891 35.5334C141.802 35.5334 141.706 35.5415 141.593 35.5496L141.248 35.5657C141.127 35.5657 141.023 35.5657 140.918 35.5657C140.806 35.5657 140.693 35.5657 140.573 35.5657L140.227 35.5496C140.115 35.5496 140.018 35.5415 139.93 35.5334C139.833 35.5334 139.769 35.5334 139.737 35.5334H139.608V36.1215H139.656L139.721 36.1296C140.139 36.1618 140.283 36.2343 140.332 36.2746C140.404 36.339 140.444 36.4196 140.444 36.5162C140.444 36.5565 140.444 36.5887 140.436 36.621C140.428 36.6532 140.42 36.6854 140.404 36.7176L138.041 43.2588L135.646 36.7176C135.646 36.7176 135.622 36.6451 135.614 36.6129C135.614 36.5887 135.606 36.5565 135.606 36.5162C135.606 36.4115 135.638 36.339 135.718 36.2746C135.767 36.2343 135.911 36.1618 136.329 36.1296H136.394L136.442 36.1215V35.5334H136.313C136.265 35.5334 136.193 35.5334 136.08 35.5334C135.976 35.5334 135.855 35.5415 135.726 35.5496L135.317 35.5657C135.18 35.5657 135.051 35.5737 134.923 35.5737C134.794 35.5737 134.674 35.5737 134.529 35.5657L134.119 35.5496C133.99 35.5496 133.87 35.5415 133.765 35.5334C133.653 35.5334 133.581 35.5334 133.532 35.5334H133.404V36.1215H133.452L133.516 36.1296C133.701 36.1457 133.838 36.1698 133.95 36.194C134.055 36.2182 134.135 36.2504 134.199 36.2987C134.264 36.3471 134.32 36.4035 134.36 36.484C134.408 36.5646 134.457 36.6774 134.513 36.8143L137.43 44.6847L137.446 44.733L137.462 44.7733H138.154L138.17 44.733L141.095 36.8143C141.143 36.6774 141.2 36.5646 141.248 36.484C141.288 36.4115 141.344 36.3471 141.409 36.2987C141.473 36.2504 141.553 36.2182 141.658 36.194C141.778 36.1698 141.931 36.1457 142.1 36.1296H142.164L142.212 36.1215V35.5334H142.084H142.092Z" fill="white"/>
<path id="Vector_25" d="M157.812 42.4613H157.755V42.5177V42.5821C157.731 42.9366 157.707 43.1863 157.659 43.3716V43.3877C157.619 43.5649 157.546 43.7099 157.458 43.8066C157.362 43.9033 157.233 43.9758 157.064 44.008C156.887 44.0483 156.654 44.0724 156.373 44.0724H154.541C154.171 44.0724 154.018 44.008 153.962 43.9597C153.882 43.8872 153.841 43.7905 153.841 43.6455V40.3829H155.465C155.746 40.3829 155.979 40.3991 156.164 40.4232C156.325 40.4474 156.453 40.4877 156.55 40.5602C156.63 40.6246 156.695 40.7132 156.727 40.826C156.767 40.9549 156.791 41.1402 156.815 41.3738V41.4382L156.823 41.4866H157.426V41.3577C157.426 41.3577 157.426 41.253 157.418 41.1402V41.0032C157.418 40.9307 157.41 40.8663 157.41 40.7857V40.681V40.5763C157.41 40.5118 157.41 40.4474 157.41 40.3749C157.41 40.246 157.41 40.1252 157.41 40.0285C157.41 39.9318 157.41 39.8191 157.41 39.6902V39.4968L157.418 39.3921V39.2874C157.418 39.2149 157.418 39.1424 157.426 39.0779V38.949C157.434 38.8443 157.442 38.7718 157.442 38.7235V38.5946H156.839V38.6429L156.831 38.7074C156.815 38.941 156.783 39.1263 156.743 39.2552C156.711 39.3679 156.646 39.4646 156.566 39.521C156.478 39.5854 156.349 39.6338 156.18 39.6499C155.995 39.674 155.77 39.6902 155.481 39.6902H153.858V36.6532C153.858 36.5162 153.898 36.4115 153.978 36.339C154.026 36.2987 154.171 36.2262 154.557 36.2262H156.309C156.59 36.2262 156.823 36.2423 157.008 36.2826C157.177 36.3148 157.305 36.3793 157.394 36.476C157.49 36.5726 157.554 36.7096 157.603 36.8948C157.651 37.0962 157.683 37.354 157.699 37.6682V37.7326V37.789H158.31V35.4932H158.181C158.093 35.4932 157.94 35.4932 157.723 35.4932C157.506 35.4932 157.257 35.5012 156.992 35.5093L156.164 35.5254C155.883 35.5254 155.634 35.5254 155.409 35.5254C155.184 35.5254 154.902 35.5254 154.549 35.5254L153.48 35.5093C153.126 35.5093 152.805 35.5012 152.515 35.4932C152.226 35.4932 152.033 35.4932 151.953 35.4932H151.824V36.0812H151.872L151.937 36.0973C152.419 36.1457 152.62 36.2262 152.7 36.2826C152.797 36.3551 152.853 36.476 152.853 36.6532V43.6213C152.853 43.7985 152.805 43.9194 152.7 43.9999C152.62 44.0563 152.419 44.1369 151.945 44.1772H151.88L151.832 44.1852V44.7733H151.961C152.009 44.7733 152.089 44.7733 152.202 44.7733H152.467L152.821 44.7652H153.094C153.223 44.7652 153.367 44.7572 153.512 44.7572L154.589 44.7411C154.943 44.7411 155.232 44.7411 155.457 44.7411C155.682 44.7411 155.923 44.7411 156.212 44.7411L157.056 44.7572C157.169 44.7572 157.273 44.7572 157.378 44.7572H157.587L157.804 44.7652C158.029 44.7652 158.189 44.7652 158.278 44.7652H158.406V42.421H157.844L157.812 42.4613Z" fill="white"/>
<path id="Vector_26" d="M172.623 40.7052L174.85 44.7411L174.874 44.7813L174.89 44.8136H174.962C174.962 44.8136 175.002 44.8136 175.051 44.8136H175.091H175.163C175.211 44.8136 175.26 44.8136 175.308 44.8055L175.549 44.7894C175.621 44.7894 175.678 44.7894 175.734 44.7894C175.79 44.7894 175.854 44.7894 175.935 44.7894L176.192 44.8055C176.192 44.8055 176.264 44.8055 176.296 44.8055H176.361L176.441 44.8136C176.505 44.8136 176.545 44.8136 176.562 44.8136H176.69V44.2255H176.642L176.578 44.2174C176.385 44.2013 176.224 44.1772 176.103 44.153C175.991 44.1288 175.894 44.1047 175.814 44.0724C175.75 44.0483 175.71 44.0241 175.677 43.9838C175.645 43.9436 175.613 43.8952 175.581 43.8308L173.692 40.5763C173.829 40.5441 173.974 40.4877 174.134 40.4232C174.384 40.3266 174.617 40.1816 174.85 39.9802C175.083 39.7788 175.284 39.5371 175.444 39.2471C175.613 38.949 175.694 38.5865 175.694 38.1757C175.694 37.2896 175.436 36.621 174.93 36.186C174.432 35.759 173.765 35.5415 172.945 35.5415C172.824 35.5415 172.648 35.5415 172.431 35.5415C172.214 35.5415 171.973 35.5496 171.723 35.5576L170.944 35.5737C170.679 35.5737 170.446 35.5737 170.245 35.5737C170.148 35.5737 170.036 35.5737 169.891 35.5737L169.473 35.5576C169.336 35.5576 169.216 35.5496 169.095 35.5415C168.975 35.5415 168.902 35.5415 168.87 35.5415H168.742V36.1296H168.79L168.854 36.1457C169.336 36.194 169.537 36.2746 169.618 36.331C169.714 36.4035 169.77 36.5243 169.77 36.7015V43.6697C169.77 43.8469 169.722 43.9677 169.618 44.0483C169.537 44.1047 169.336 44.1852 168.862 44.2255H168.798L168.75 44.2336V44.8216H168.878C168.919 44.8216 169.007 44.8216 169.127 44.8216H169.224C169.312 44.8216 169.417 44.8136 169.521 44.8055L169.971 44.7894C170.116 44.7894 170.245 44.7894 170.349 44.7894C170.454 44.7894 170.574 44.7894 170.711 44.7894L171.121 44.8055C171.201 44.8055 171.281 44.8055 171.354 44.8136H171.482C171.595 44.8216 171.667 44.8216 171.715 44.8216H171.844V44.2336H171.796L171.731 44.2255C171.498 44.2094 171.33 44.1852 171.201 44.1449C171.08 44.1127 170.984 44.0805 170.92 44.0322C170.863 43.9919 170.831 43.9516 170.815 43.9033C170.791 43.8388 170.783 43.7663 170.783 43.6697V40.7213H172.632L172.623 40.7052ZM170.775 40.0446V36.6935C170.775 36.6129 170.791 36.5404 170.823 36.4921C170.839 36.4679 170.888 36.4115 171.048 36.3551C171.185 36.3068 171.394 36.2746 171.667 36.2504C171.94 36.2262 172.318 36.2182 172.784 36.2182C173.459 36.2182 173.942 36.3954 174.223 36.7418C174.504 37.0962 174.657 37.5796 174.657 38.1757C174.657 38.7718 174.496 39.2068 174.167 39.5452C173.845 39.8754 173.299 40.0446 172.551 40.0446H170.775Z" fill="white"/>
<path id="Vector_27" d="M191.671 40.367C191.438 40.1575 191.141 39.9883 190.795 39.8594C190.466 39.7386 190.064 39.6339 189.606 39.5372C188.971 39.4164 188.497 39.2311 188.191 38.9814C187.902 38.7478 187.749 38.3691 187.749 37.8616C187.749 37.5555 187.781 37.3058 187.854 37.0883C187.918 36.8789 188.022 36.7016 188.159 36.5566C188.304 36.4116 188.497 36.3069 188.73 36.2263C188.971 36.1458 189.276 36.1055 189.646 36.1055C189.919 36.1055 190.184 36.1297 190.417 36.17C190.642 36.2102 190.827 36.2827 190.996 36.3955C191.149 36.5002 191.269 36.6533 191.358 36.8627C191.446 37.0641 191.502 37.3541 191.518 37.7005V37.765V37.8214H192.153V35.7994L192.121 35.7833L192.081 35.7672C192.001 35.7269 191.88 35.6866 191.703 35.6463C191.534 35.6061 191.342 35.5658 191.125 35.5336C190.908 35.5013 190.666 35.4691 190.417 35.4449C190.168 35.4208 189.919 35.4127 189.678 35.4127C189.26 35.4127 188.866 35.4611 188.521 35.5577C188.167 35.6544 187.854 35.8074 187.596 36.0088C187.331 36.2183 187.13 36.4761 186.994 36.7902C186.857 37.1044 186.785 37.475 186.785 37.8939C186.785 38.3128 186.841 38.6753 186.953 38.9653C187.066 39.2633 187.235 39.5211 187.46 39.7225C187.685 39.9239 187.966 40.0931 188.296 40.2139C188.625 40.3347 189.019 40.4395 189.461 40.512C189.774 40.5683 190.064 40.6489 190.321 40.7456C190.554 40.8342 190.763 40.955 190.924 41.1C191.084 41.245 191.205 41.4222 191.293 41.6317C191.374 41.8411 191.422 42.0989 191.422 42.397C191.422 43.0414 191.269 43.5087 190.964 43.7987C190.658 44.0887 190.136 44.2337 189.421 44.2337C189.099 44.2337 188.818 44.2176 188.569 44.1773C188.336 44.1451 188.135 44.0645 187.982 43.9517C187.821 43.8389 187.701 43.6778 187.62 43.4684C187.532 43.2509 187.476 42.9528 187.468 42.5903V42.5178V42.4614H186.833V44.5237L186.865 44.5398L186.913 44.5559C187.034 44.6042 187.178 44.6445 187.355 44.6848C187.516 44.7251 187.701 44.7573 187.95 44.7976C188.167 44.8298 188.4 44.862 188.649 44.8862C188.898 44.9103 189.139 44.9184 189.381 44.9184C189.855 44.9184 190.281 44.8781 190.65 44.7895C191.028 44.7009 191.35 44.5559 191.607 44.3464C191.864 44.137 192.065 43.8631 192.193 43.5328C192.33 43.2025 192.394 42.7917 192.394 42.3164C192.394 41.8411 192.33 41.4706 192.21 41.1564C192.089 40.8422 191.912 40.5764 191.671 40.3589V40.367Z" fill="white"/>
<path id="Vector_28" d="M205.655 35.5334C205.607 35.5334 205.527 35.5334 205.414 35.5334C205.302 35.5334 205.181 35.5415 205.044 35.5496L204.634 35.5657C204.49 35.5657 204.369 35.5657 204.273 35.5657C204.176 35.5657 204.048 35.5657 203.911 35.5657L203.485 35.5496C203.349 35.5496 203.22 35.5415 203.107 35.5334C202.995 35.5334 202.907 35.5334 202.866 35.5334H202.738V36.1215H202.786L202.85 36.1376C203.333 36.186 203.533 36.2665 203.614 36.3229C203.71 36.3954 203.767 36.5162 203.767 36.6935V43.6616C203.767 43.8388 203.718 43.9597 203.614 44.0402C203.533 44.0966 203.333 44.1772 202.858 44.2174H202.794L202.746 44.2255V44.8136H202.874C202.915 44.8136 202.995 44.8136 203.107 44.8136H203.196C203.284 44.8136 203.373 44.8055 203.477 44.7975L203.895 44.7813C204.032 44.7813 204.144 44.7813 204.257 44.7813C204.369 44.7813 204.482 44.7813 204.618 44.7813L205.036 44.7975C205.093 44.7975 205.141 44.7975 205.197 44.7975H205.302L205.422 44.8055C205.543 44.8055 205.623 44.8055 205.663 44.8055H205.792V44.2174H205.744L205.679 44.2094C205.173 44.1691 204.988 44.0805 204.924 44.0322C204.819 43.9516 204.771 43.8308 204.771 43.6535V36.6854C204.771 36.5082 204.819 36.3873 204.924 36.3148C205.036 36.2343 205.294 36.1698 205.679 36.1296H205.744L205.792 36.1135V35.5254H205.663L205.655 35.5334Z" fill="white"/>
<path id="Vector_29" d="M222.243 35.5334C222.155 35.5334 221.986 35.5334 221.729 35.5334C221.48 35.5334 221.198 35.5415 220.885 35.5496L219.937 35.5657C219.615 35.5657 219.342 35.5657 219.101 35.5657C218.86 35.5657 218.586 35.5657 218.257 35.5657L217.301 35.5496C216.987 35.5496 216.706 35.5415 216.457 35.5334C216.208 35.5334 216.039 35.5334 215.95 35.5334H215.822V37.8293H216.441V37.7729V37.7004C216.449 37.3862 216.481 37.1365 216.529 36.9432C216.577 36.766 216.65 36.629 216.738 36.5323C216.826 36.4437 216.955 36.3793 217.124 36.3471C217.317 36.3068 217.55 36.2907 217.823 36.2907H218.578V43.6535C218.578 43.7422 218.57 43.8227 218.546 43.8872C218.53 43.9355 218.498 43.9758 218.434 44.0161C218.369 44.0563 218.257 44.0966 218.12 44.1208C217.952 44.153 217.751 44.1772 217.51 44.2013H217.445L217.397 44.2174V44.8055H217.526C217.574 44.8055 217.662 44.8055 217.791 44.8055H217.927L218.048 44.7975C218.104 44.7975 218.152 44.7975 218.209 44.7975L218.675 44.7813C218.836 44.7813 218.964 44.7813 219.077 44.7813C219.189 44.7813 219.326 44.7813 219.479 44.7813L219.953 44.7975C220.017 44.7975 220.073 44.7975 220.13 44.7975H220.25L220.379 44.8055C220.507 44.8055 220.596 44.8055 220.644 44.8055H220.772V44.2174H220.724L220.66 44.2013C220.427 44.1772 220.218 44.1449 220.049 44.1208C219.904 44.0886 219.8 44.0563 219.736 44.0161C219.679 43.9758 219.639 43.9355 219.623 43.8872C219.599 43.8227 219.591 43.7502 219.591 43.6535V36.2907H220.347C220.628 36.2907 220.861 36.3068 221.046 36.3471C221.215 36.3793 221.343 36.4437 221.44 36.5323C221.528 36.621 221.6 36.7579 221.64 36.9432C221.689 37.1365 221.721 37.3943 221.737 37.7085V37.7729V37.8293H222.356V35.5334H222.227H222.243Z" fill="white"/>
<path id="Vector_30" d="M236.195 32.7946L236.179 32.8268L235.07 34.7843L235.022 34.8729H235.777L235.794 34.8487L237.329 32.8912L237.401 32.8026H236.195V32.7946Z" fill="white"/>
<path id="Vector_31" d="M238.438 42.4613H238.381V42.5177V42.5821C238.357 42.9366 238.333 43.1863 238.285 43.3797C238.245 43.5649 238.172 43.7099 238.084 43.8147C237.988 43.9113 237.859 43.9838 237.69 44.016C237.513 44.0563 237.28 44.0805 236.999 44.0805H235.167C234.797 44.0805 234.644 44.0161 234.588 43.9677C234.508 43.8952 234.467 43.7985 234.467 43.6535V40.391H236.091C236.372 40.391 236.605 40.4071 236.79 40.4313C236.951 40.4554 237.079 40.4957 237.176 40.5682C237.256 40.6327 237.321 40.7213 237.353 40.8341C237.393 40.963 237.417 41.1482 237.441 41.3818V41.4463L237.449 41.4946H238.052V41.3657C238.052 41.3657 238.052 41.261 238.044 41.1482V41.0113C238.044 40.9388 238.036 40.8743 238.036 40.7938V40.6891V40.5924C238.036 40.5279 238.036 40.4635 238.036 40.391C238.036 40.2621 238.036 40.1413 238.036 40.0446C238.036 39.9479 238.036 39.8352 238.036 39.7063V39.5129L238.044 39.4082V39.3035C238.044 39.231 238.044 39.1585 238.052 39.094V38.9652C238.06 38.8604 238.068 38.7879 238.068 38.7396V38.6107H237.465V38.659L237.457 38.7235C237.441 38.9571 237.409 39.1424 237.369 39.2713C237.337 39.384 237.272 39.4807 237.192 39.5371C237.104 39.6016 236.975 39.6499 236.806 39.666C236.621 39.6902 236.396 39.7063 236.107 39.7063H234.484V36.6693C234.484 36.5323 234.524 36.4276 234.604 36.3551C234.652 36.3148 234.797 36.2423 235.183 36.2423H236.935C237.216 36.2423 237.449 36.2585 237.634 36.2987C237.803 36.331 237.931 36.3954 238.02 36.4921C238.116 36.5887 238.18 36.7257 238.229 36.911C238.277 37.1124 238.309 37.3701 238.325 37.6843V37.7487V37.8051H238.936V35.5093H238.807C238.719 35.5093 238.566 35.5093 238.349 35.5093C238.132 35.5093 237.883 35.5173 237.618 35.5254L236.79 35.5415C236.509 35.5415 236.26 35.5415 236.035 35.5415C235.81 35.5415 235.528 35.5415 235.175 35.5415L234.106 35.5254C233.752 35.5254 233.431 35.5173 233.141 35.5093C232.852 35.5093 232.659 35.5093 232.579 35.5093H232.45V36.0973H232.498L232.563 36.1135C233.045 36.1618 233.246 36.2423 233.326 36.2987C233.423 36.3712 233.479 36.4921 233.479 36.6693V43.6374C233.479 43.8147 233.431 43.9355 233.326 44.016C233.246 44.0724 233.045 44.153 232.571 44.1933H232.506L232.458 44.2013V44.7894H232.587C232.635 44.7894 232.715 44.7894 232.828 44.7894H233.093L233.447 44.7813H233.72C233.849 44.7813 233.993 44.7733 234.138 44.7733L235.215 44.7572C235.568 44.7572 235.858 44.7572 236.083 44.7572C236.308 44.7572 236.549 44.7572 236.838 44.7572L237.682 44.7733C237.795 44.7733 237.899 44.7733 238.004 44.7733H238.213L238.43 44.7813C238.655 44.7813 238.815 44.7813 238.904 44.7813H239.032V42.4371H238.47L238.438 42.4613Z" fill="white"/>
<path id="Vector_32" d="M9.79688 66H13.9278L37.9661 56.4943L62.0043 66H66.1352L37.9661 54.8671L9.79688 66Z" fill="white"/>
<path id="Vector_33" d="M58.8459 59.2415L58.7414 49.035C58.886 48.9545 58.9825 48.8014 58.9825 48.6242C58.9825 48.4631 58.8941 48.3261 58.7735 48.2375C58.8378 48.165 58.9262 48.0925 59.0709 48.0925L59.087 47.6414C59.087 47.6414 58.7494 47.6011 58.6851 46.9728H59.7379V45.5872H60.4291L61.1524 43.3236H60.5898L61.1524 41.9461H54.2086V37.0804L54.9641 35.6626V34.3496L55.4704 33.5601L55.4543 32.8996H54.1121L53.8469 32.4726C53.8148 21.0175 44.3795 16.3855 43.2704 15.886L42.5873 14.879L42.8284 14.3796H43.2222L43.616 13.5579L43.0615 13.0665L42.9007 12.6154H41.4782L41.8077 11.3748H41.0924L40.9799 11.2218L40.9478 8.21702C40.988 8.16868 41.0201 8.10424 41.0201 8.03174C41.0201 7.93507 40.9719 7.84646 40.8915 7.79007V7.67729H40.9799L41.3737 6.85561H40.8433L41.7997 4.79336H41.1085C41.004 2.88417 39.5654 1.98194 39.1154 1.75638V1.73221H39.1797L38.7537 0.854145C38.7376 0.24997 38.2313 0.0324678 38.2072 0.0244121L38.1268 0.00830078H37.7089L37.6205 0.0244121C37.6205 0.0244121 37.074 0.258026 37.066 0.878312L36.6481 1.74027H36.7204V1.76443C36.2703 1.99805 34.8398 2.90028 34.7353 4.80142H34.0763L35.0246 6.86367H34.5022L34.896 7.68534H35.0005V7.8384C34.9442 7.89479 34.9201 7.95923 34.9201 8.03174C34.9201 8.10424 34.9442 8.16868 34.9925 8.21702L34.9684 11.2218L34.8639 11.3829H34.0843L34.4058 12.6235H33.0475L32.8788 13.0746L32.2519 13.566L32.6457 14.3876H33.0315L33.2726 14.8871L32.6537 15.8779C31.7295 16.2888 22.0772 20.8966 22.0371 32.4807L21.7558 32.9157H20.5502L20.5261 33.5762L21.0967 34.3737L21.0726 35.6868L21.6593 37.1046V41.9702H14.7155L15.2781 43.3397H14.7155L15.4629 45.6114H16.1541L16.13 46.997H17.1426C17.0783 47.6172 16.7649 47.6575 16.7488 47.6575V48.1086C16.9417 48.1086 17.0381 48.2134 17.0944 48.31C17.006 48.3986 16.9578 48.5114 16.9578 48.6403C16.9578 48.8175 17.0622 48.9706 17.2069 49.0511L17.1105 59.2577L0 66.0002H4.13094L37.9661 52.6198L71.8093 66.0002H75.9483L58.8459 59.2335V59.2415ZM38.5528 3.48029C38.8903 3.48029 39.7181 4.58391 39.7664 5.37337V5.46198H38.7537V5.38142C38.7376 4.74503 38.6171 4.23752 38.5287 3.82668C38.5126 3.74613 38.4885 3.66557 38.4724 3.59307L38.4483 3.48834H38.5528V3.48029ZM39.6137 7.1295V7.21811L39.5815 11.3426H38.8984V11.254L38.9305 7.1295H39.6137ZM36.0774 5.37337C36.1176 4.61614 36.9052 3.48834 37.291 3.48834H37.3955L37.3714 3.59307C37.3553 3.66557 37.3392 3.73807 37.3232 3.82668C37.2347 4.23752 37.1142 4.74503 37.1062 5.38142V5.46198H36.0774V5.37337ZM37.0258 7.1295V7.21811L36.9936 11.3426H36.3105V11.254L36.3427 7.1295H37.0258ZM40.5218 12.994L40.3691 14.0815H35.5711L35.4184 12.994H40.5299H40.5218ZM34.4379 14.9032H41.4862L42.089 15.9907H33.8512L34.4379 14.9032ZM24.0061 31.8845C24.1186 21.7827 33.0395 17.8032 33.4172 17.6341H35.0005C35.0005 17.6341 33.9718 18.1094 33.6503 18.2946C33.3288 18.488 25.0509 22.9911 25.2839 31.1595H29.6881C29.7605 22.5803 34.9764 18.1255 35.0326 18.0771L35.555 17.6341H36.3668L35.9087 18.2785C34.9362 19.2291 30.8535 23.9578 30.8535 31.1515H34.5504C34.5746 24.4572 35.9247 19.7124 36.64 18.1335L36.8651 17.626H37.8616L37.6929 18.2383C37.6125 18.4719 35.772 23.9739 35.7399 31.1515H40.2245C40.1923 23.9739 38.3519 18.4719 38.2715 18.2383L38.1027 17.626H39.0993L39.3243 18.1335C40.0396 19.7124 41.3898 24.4572 41.4139 31.1515H45.1109C45.1109 23.9578 41.0201 19.221 40.0557 18.2785L39.5976 17.6341H40.4093L40.9317 18.0771C40.988 18.1255 46.2039 22.5803 46.2762 31.1595H50.6804C50.9135 22.9911 42.6355 18.4799 42.314 18.2946C41.9926 18.1094 40.9639 17.6341 40.9639 17.6341H42.5471C42.9248 17.7952 51.8458 21.7827 51.9583 31.8845V32.2551H37.9902H24.0141V31.8845H24.0061ZM22.7604 33.9065H53.3245V34.994H22.7604V33.9065ZM52.0467 37.451V41.9461H51.1385V37.451C51.1385 37.2335 51.251 36.4601 51.5966 36.4601C51.9422 36.4601 52.0467 37.2013 52.0467 37.451ZM48.4783 37.451V41.938H46.9593V37.451C46.9593 37.4107 46.9754 36.4521 47.6505 36.4521C48.4381 36.4521 48.4703 37.3463 48.4703 37.4429L48.4783 37.451ZM44.2991 37.451V41.938H42.0086V37.451C42.0086 37.2174 42.097 36.4521 43.0695 36.4521C44.1947 36.4521 44.2991 37.2174 44.2991 37.4429V37.451ZM39.0913 37.451V41.9461H36.857V37.4591C36.857 37.2254 36.9535 36.4601 37.9741 36.4601C38.9948 36.4601 39.0913 37.2254 39.0913 37.451ZM33.8995 37.451V41.938H31.6652V37.451C31.6652 37.2174 31.7617 36.4521 32.7823 36.4521C33.803 36.4521 33.8914 37.2093 33.8995 37.4429V37.451ZM28.9889 37.451V41.938H27.47V37.451C27.47 37.3463 27.5021 36.4521 28.2254 36.4521C28.9487 36.4521 28.9809 37.3382 28.9809 37.4429L28.9889 37.451ZM24.8017 37.451V41.938H23.8936V37.4429C23.8936 37.2254 24.0061 36.4521 24.3517 36.4521C24.6973 36.4521 24.8017 37.1932 24.8098 37.4429L24.8017 37.451ZM22.1014 57.2599L19.5376 58.2749L19.4653 49.0189C19.5939 48.9384 19.6823 48.7853 19.6823 48.6081C19.6823 48.447 19.6019 48.302 19.4974 48.2214C19.5537 48.1489 19.634 48.0764 19.7626 48.0764V47.6253C19.7626 47.6253 19.4813 47.585 19.4251 46.9647H22.1174C22.0612 47.585 21.7799 47.6253 21.7718 47.6253V48.0764C21.9406 48.0764 22.029 48.1811 22.0772 48.2778C22.0049 48.3664 21.9567 48.4792 21.9567 48.6081C21.9567 48.7853 22.0451 48.9384 22.1737 49.0189L22.1094 57.2599H22.1014ZM27.0119 55.3184L24.4481 56.3335L24.3758 49.0189C24.5044 48.9384 24.5928 48.7853 24.5928 48.6081C24.5928 48.447 24.5124 48.302 24.4079 48.2214C24.4642 48.1489 24.5446 48.0764 24.6731 48.0764V47.6253C24.6731 47.6253 24.3919 47.585 24.3356 46.9647H27.0279C26.9717 47.585 26.6904 47.6253 26.6824 47.6253V48.0764C26.8511 48.0764 26.9395 48.1811 26.9878 48.2778C26.9154 48.3664 26.8672 48.4792 26.8672 48.6081C26.8672 48.7853 26.9556 48.9384 27.0842 49.0189L27.0199 55.3184H27.0119ZM31.9465 53.369L29.3265 54.4082L29.2783 49.027C29.4069 48.9464 29.4953 48.7934 29.4953 48.6161C29.4953 48.455 29.4149 48.31 29.3104 48.2295C29.3667 48.157 29.447 48.0845 29.5756 48.0845V47.6333C29.5756 47.6333 29.2943 47.5931 29.2381 46.9728H31.9304C31.8742 47.5931 31.5929 47.6333 31.5848 47.6333V48.0845C31.7536 48.0845 31.842 48.1892 31.8902 48.2859C31.8179 48.3745 31.7697 48.4872 31.7697 48.6161C31.7697 48.7934 31.8581 48.9464 31.9867 49.027L31.9465 53.377V53.369ZM36.857 51.4276L34.237 52.4667L34.1888 49.0592C34.3174 48.9786 34.4058 48.8256 34.4058 48.6484C34.4058 48.4872 34.3254 48.3422 34.2209 48.2617C34.2772 48.1892 34.3576 48.1167 34.4861 48.1167V47.6656C34.4861 47.6656 34.2049 47.5931 34.1486 46.9728H36.8409C36.7847 47.5931 36.5034 47.6656 36.4954 47.6656V48.1167C36.6641 48.1167 36.7525 48.2214 36.8008 48.3181C36.7284 48.4067 36.6802 48.5195 36.6802 48.6484C36.6802 48.8256 36.7686 48.9786 36.8972 49.0592L36.857 51.4276ZM41.7675 52.4828L39.1475 51.4437L39.0993 49.0189C39.2279 48.9384 39.3163 48.7853 39.3163 48.6081C39.3163 48.447 39.2359 48.302 39.1314 48.2214C39.1877 48.1489 39.2681 48.0764 39.3967 48.0764V47.6253C39.3967 47.6253 39.1154 47.585 39.0591 46.9647H41.7515C41.6952 47.585 41.4139 47.6253 41.4059 47.6253V48.0764C41.5746 48.0764 41.6631 48.1811 41.7113 48.2778C41.6389 48.3664 41.5907 48.4792 41.5907 48.6081C41.5907 48.7853 41.6791 48.9384 41.8077 49.0189L41.7675 52.4828ZM46.662 54.4162L44.05 53.3851L44.0098 49.0189C44.1384 48.9384 44.2268 48.7853 44.2268 48.6081C44.2268 48.447 44.1464 48.302 44.042 48.2214C44.0982 48.1489 44.1786 48.0764 44.3072 48.0764V47.6253C44.3072 47.6253 44.0259 47.585 43.9696 46.9647H46.662C46.6057 47.585 46.3244 47.6253 46.3164 47.6253V48.0764C46.4852 48.0764 46.5736 48.1811 46.6218 48.2778C46.5495 48.3664 46.5012 48.4792 46.5012 48.6081C46.5012 48.7853 46.5896 48.9384 46.7182 49.0189L46.67 54.4162H46.662ZM51.5564 56.3496L48.9927 55.3346L48.9203 49.0189C49.0489 48.9384 49.1373 48.7853 49.1373 48.6081C49.1373 48.447 49.057 48.302 48.9525 48.2214C49.0087 48.1489 49.0891 48.0764 49.2177 48.0764V47.6253C49.2177 47.6253 48.9364 47.585 48.8801 46.9647H51.5725C51.5162 47.585 51.235 47.6253 51.2269 47.6253V48.0764C51.3957 48.0764 51.4841 48.1811 51.5323 48.2778C51.46 48.3664 51.4118 48.4792 51.4118 48.6081C51.4118 48.7853 51.5002 48.9384 51.6288 49.0189L51.5645 56.3496H51.5564ZM56.4509 58.2829L53.8871 57.2679L53.8228 49.0189C53.9514 48.9384 54.0398 48.7853 54.0398 48.6081C54.0398 48.447 53.9594 48.302 53.855 48.2214C53.9112 48.1489 53.9916 48.0764 54.1202 48.0764V47.6253C54.1202 47.6253 53.8389 47.585 53.7826 46.9647H56.475C56.4187 47.585 56.1374 47.6253 56.1294 47.6253V48.0764C56.2982 48.0764 56.3866 48.1811 56.4348 48.2778C56.3625 48.3664 56.3142 48.4792 56.3142 48.6081C56.3142 48.7853 56.4026 48.9384 56.5312 49.0189L56.4509 58.2829ZM58.1868 44.7655H17.7534L17.456 43.678H58.4762L58.1868 44.7655Z" fill="white"/>
</g>
<defs>
<clipPath id="clip0_137_2289">
<rect width="239" height="66" fill="white"/>
</clipPath>
</defs>
</svg>
